<svg xmlns="http://www.w3.org/2000/svg" viewBox="0 0 56 56"><defs><style>.a{fill:#ecee57;}.b,.d{fill:none;}.b{stroke:#ecee57;stroke-width:2px;}.c{stroke:none;}</style></defs><g transform="translate(-1451 -808)"><g transform="translate(1459.986 817)"><path class="a" d="M102.068,96.625l-7.489-7.489,5.343-3.086a1.259,1.259,0,0,0-.163-2.259l-23.826-9.5A1.258,1.258,0,0,0,74.3,75.922L83.8,99.75a1.259,1.259,0,0,0,2.259.163l3.086-5.343,7.489,7.489a1.258,1.258,0,0,0,1.78,0l3.654-3.655A1.258,1.258,0,0,0,102.068,96.625ZM97.523,99.39l-7.758-7.759a1.258,1.258,0,0,0-1.98.261l-2.608,4.516L77.72,77.71l18.7,7.458L91.9,87.777a1.259,1.259,0,0,0-.261,1.98L99.4,97.516Z" transform="translate(-64.794 -64.796)"/><path class="a" d="M28.8,27.013a1.259,1.259,0,0,0-1.78,1.78l2.8,2.8a1.259,1.259,0,0,0,1.78-1.78Z" transform="translate(-23.265 -23.269)"/><path class="a" d="M6.485,89.542a1.259,1.259,0,0,0-1.259-1.258H1.272a1.258,1.258,0,1,0,0,2.517H5.226A1.259,1.259,0,0,0,6.485,89.542Z" transform="translate(0 -77.097)"/><path class="a" d="M25.247,126.33l-2.8,2.8a1.258,1.258,0,1,0,1.78,1.78l2.8-2.8a1.258,1.258,0,0,0-1.78-1.78Z" transform="translate(-19.273 -110.001)"/><path class="a" d="M89.549,6.472a1.259,1.259,0,0,0,1.258-1.259V1.258a1.258,1.258,0,1,0-2.517,0V5.214A1.258,1.258,0,0,0,89.549,6.472Z" transform="translate(-77.092)"/><path class="a" d="M127.22,27.386a1.254,1.254,0,0,0,.89-.368l2.8-2.8a1.258,1.258,0,0,0-1.78-1.78l-2.8,2.8a1.258,1.258,0,0,0,.89,2.148Z" transform="translate(-109.99 -19.276)"/></g><g class="b" transform="translate(1451 808)"><rect class="c" width="56" height="56"/><rect class="d" x="1" y="1" width="54" height="54"/></g></g></svg>