<svg xmlns="http://www.w3.org/2000/svg" viewBox="0 0 129 110"><defs><style>.a,.d{fill:none;}.a{stroke:#fff;stroke-width:2px;}.b{fill:#fff;}.c{stroke:none;}</style></defs><g transform="translate(-1249 -342)"><g class="a" transform="translate(1249 342)"><rect class="c" width="129" height="110"/><rect class="d" x="1" y="1" width="127" height="108"/></g><path class="b" d="M317.054,341.35h0a1.209,1.209,0,0,0,0,2.418h0a1.21,1.21,0,0,1,1.209,1.208,1.209,1.209,0,0,0,1.209,1.208h0a1.209,1.209,0,0,0,1.208-1.21A3.631,3.631,0,0,0,317.054,341.35Z" transform="translate(1005.906 68.012)"/><path class="b" d="M214.539,360.82l2.418,0a1.209,1.209,0,0,0,0-2.418h0l-2.418,0a1.209,1.209,0,1,0,0,2.418Z" transform="translate(1093.896 53.377)"/><path class="b" d="M220.425,325.831l2.273.825a1.209,1.209,0,1,0,.825-2.273l-2.273-.825a1.209,1.209,0,0,0-.825,2.273Z" transform="translate(1088.485 83.344)"/><path class="b" d="M223.924,387.953a1.209,1.209,0,0,0-1.191-.209l-2.272.829a1.209,1.209,0,1,0,.829,2.272l2.272-.829a1.209,1.209,0,0,0,.362-2.063Z" transform="translate(1088.455 28.254)"/><path class="b" d="M404.741,358.383h0l-2.418,0a1.209,1.209,0,0,0,0,2.418h0l2.418,0a1.209,1.209,0,0,0,0-2.418Z" transform="translate(932.708 53.392)"/><path class="b" d="M397.233,326.555h0a1.216,1.216,0,0,0,.414-.074l2.271-.829a1.209,1.209,0,1,0-.829-2.272l-2.271.829a1.209,1.209,0,0,0,.414,2.345Z" transform="translate(937.084 83.498)"/><path class="b" d="M399.99,388.434l-2.273-.825a1.209,1.209,0,0,0-.825,2.273l2.273.825a1.209,1.209,0,0,0,.825-2.273Z" transform="translate(937.019 28.369)"/><path class="b" d="M127.525,34.137a8.464,8.464,0,0,0-8.059,8.454,1.209,1.209,0,1,0,2.418,0,6.027,6.027,0,0,1,2.234-4.693,6.11,6.11,0,0,1,5.125-1.214,6.049,6.049,0,0,1-.447,11.891,2.425,2.425,0,0,0-2.076,2.385v1.3a1.209,1.209,0,0,0,2.418,0v-1.3a8.463,8.463,0,0,0-1.613-16.83Z" transform="translate(1174.46 331.708)"/><path class="b" d="M172.734,188.119a1.4,1.4,0,0,0-.4-.254,1.214,1.214,0,0,0-.919,0,1.243,1.243,0,0,0-.4.254,1.4,1.4,0,0,0-.254.4,1.208,1.208,0,0,0-.1.46,1.586,1.586,0,0,0,.024.241.768.768,0,0,0,.072.218.919.919,0,0,0,.109.218l.145.181a1.272,1.272,0,0,0,.858.351,1.015,1.015,0,0,0,.459-.1,1.407,1.407,0,0,0,.4-.254l.145-.181a.921.921,0,0,0,.109-.218.79.79,0,0,0,.073-.218,1.682,1.682,0,0,0,.024-.241,1.208,1.208,0,0,0-.1-.46A1.415,1.415,0,0,0,172.734,188.119Z" transform="translate(1130.513 199.829)"/><path class="b" d="M53.2,29.016V4.836A4.842,4.842,0,0,0,48.359,0H4.836A4.842,4.842,0,0,0,0,4.836v24.18a4.841,4.841,0,0,0,4.836,4.836H6.045V41.1a2.417,2.417,0,0,0,4.128,1.71.965.965,0,0,0,.081-.09L17.5,33.852h30.86A4.842,4.842,0,0,0,53.2,29.016Zm-36.27,2.418c-.02,0-.037.011-.057.012a2.532,2.532,0,0,0-.457.113,2.519,2.519,0,0,0-.376.283c-.014.015-.033.022-.046.038L8.463,41.093V32.643a1.209,1.209,0,0,0-1.209-1.209H4.836a2.42,2.42,0,0,1-2.418-2.418V4.836A2.42,2.42,0,0,1,4.836,2.418H48.359a2.42,2.42,0,0,1,2.418,2.418v24.18a2.42,2.42,0,0,1-2.418,2.418Z" transform="translate(1277 361)"/><path class="b" d="M184.893,214.488h-1.209v-7.251a2.418,2.418,0,0,0-4.128-1.71.967.967,0,0,0-.081.09l-7.245,8.871H141.37a4.841,4.841,0,0,0-4.836,4.836V243.5a4.841,4.841,0,0,0,4.836,4.836h43.523a4.841,4.841,0,0,0,4.836-4.836v-24.18A4.841,4.841,0,0,0,184.893,214.488Zm2.418,29.016a2.42,2.42,0,0,1-2.418,2.418H141.37a2.42,2.42,0,0,1-2.418-2.418v-24.18a2.42,2.42,0,0,1,2.418-2.418H172.8a1.194,1.194,0,0,0,.49-.108,1.227,1.227,0,0,0,.1-.07,1.2,1.2,0,0,0,.3-.233c.013-.014.031-.019.043-.033l7.527-9.215V215.7a1.209,1.209,0,0,0,1.209,1.209h2.418a2.42,2.42,0,0,1,2.418,2.418V243.5Z" transform="translate(1159.81 185.2)"/><path class="b" d="M274.01,307.248a8.46,8.46,0,0,0-6.308,15,1.19,1.19,0,0,1,.454.932v.932a2.41,2.41,0,0,0,1.208,2.081v1.547a3.639,3.639,0,0,0,1.509,2.938,3.6,3.6,0,0,0,2.115.686,3.78,3.78,0,0,0,1.19-.194,3.678,3.678,0,0,0,2.441-3.555V326.2a2.41,2.41,0,0,0,1.208-2.081v-.928a1.243,1.243,0,0,1,.485-.96,8.408,8.408,0,0,0,3.035-7.933A8.55,8.55,0,0,0,274.01,307.248Zm-.59,21.628a1.228,1.228,0,0,1-1.13-.157,1.213,1.213,0,0,1-.507-.98v-1.208h2.42v1.087A1.306,1.306,0,0,1,273.42,328.877Zm3.374-8.532a3.649,3.649,0,0,0-1.384,2.841v.924h0l-4.835,0v-.932a3.6,3.6,0,0,0-1.362-2.82,6.043,6.043,0,0,1,3.772-10.756,6.328,6.328,0,0,1,.743.044,6.094,6.094,0,0,1,5.232,5.018A6.016,6.016,0,0,1,276.794,320.345Z" transform="translate(1049.949 97.335)"/></g></svg>